<svg version="1.1" id="Layer_1" xmlns="http://www.w3.org/2000/svg" xmlns:xlink="http://www.w3.org/1999/xlink" x="0px" y="0px"
	 width="100%" viewBox="0 0 1788 756" enable-background="new 0 0 1788 756" xml:space="preserve">
<path fill="#DA7947" opacity="1.000000" stroke="none" 
	d="
M1139.000000,757.000000 
	C759.333313,757.000000 380.166656,757.000000 1.000000,757.000000 
	C1.000000,505.000000 1.000000,253.000000 1.000000,1.000000 
	C597.000000,1.000000 1193.000000,1.000000 1789.000000,1.000000 
	C1789.000000,253.000000 1789.000000,505.000000 1789.000000,757.000000 
	C1572.500000,757.000000 1356.000000,757.000000 1139.000000,757.000000 
M1212.949585,356.472290 
	C1228.755371,331.843506 1244.561157,307.214722 1260.620117,282.191406 
	C1258.837158,281.210602 1257.443237,280.384674 1255.999023,279.658386 
	C1240.092041,271.658875 1224.220825,263.586121 1208.220337,255.777954 
	C1205.682983,254.539734 1202.498413,253.807678 1199.708740,254.032074 
	C1167.007568,256.662628 1134.322876,259.496857 1101.642090,262.373077 
	C1099.478149,262.563538 1097.382568,263.530853 1095.046875,264.196167 
	C1095.046875,262.757660 1095.046753,260.953674 1095.046875,259.149689 
	C1095.047119,231.324448 1094.986938,203.498901 1095.128052,175.674377 
	C1095.144775,172.388641 1094.205811,170.676910 1091.204590,169.221207 
	C1074.586060,161.160721 1058.106934,152.812958 1041.506104,144.715347 
	C1039.532227,143.752518 1037.060059,143.148743 1034.900146,143.332687 
	C1013.496948,145.155426 992.109680,147.166153 970.720581,149.153107 
	C962.631287,149.904572 954.549072,150.732651 946.273682,151.544434 
	C946.147583,153.187485 945.961792,154.478912 945.961670,155.770355 
	C945.948486,296.562775 945.959595,437.355164 945.881042,578.147522 
	C945.879272,581.268982 946.889954,582.836182 949.673706,584.196594 
	C966.118225,592.232727 982.427246,600.546265 998.882507,608.559875 
	C1001.133301,609.655945 1003.993286,610.190308 1006.489075,609.985168 
	C1026.736328,608.320557 1046.965576,606.434082 1067.196777,604.579407 
	C1076.407471,603.734985 1085.610718,602.809814 1095.197021,601.884583 
	C1095.197021,582.269531 1095.197021,563.243713 1095.197021,544.217896 
	C1100.126953,552.699890 1104.036621,561.446594 1108.254028,570.042297 
	C1109.196655,571.963257 1110.920288,573.937012 1112.791992,574.897949 
	C1129.815063,583.638367 1146.930786,592.199890 1164.085083,600.680908 
	C1165.766479,601.512085 1167.921875,601.890564 1169.799438,601.742920 
	C1198.355713,599.497559 1226.903442,597.139099 1255.450684,594.780090 
	C1260.173584,594.389771 1264.885864,593.871399 1270.138306,593.360107 
	C1268.691162,590.620667 1267.630127,588.568176 1266.530396,586.536621 
	C1236.584839,531.215210 1206.664429,475.880066 1176.608521,420.618683 
	C1174.933960,417.539856 1175.015137,415.444977 1176.908813,412.538116 
	C1188.904175,394.125305 1200.693115,375.578033 1212.949585,356.472290 
M497.695526,471.790222 
	C488.260651,454.995087 478.825775,438.199921 469.222900,421.105743 
	C471.365845,419.646301 473.120148,418.440399 474.885559,417.250946 
	C495.254547,403.527283 511.014160,385.829285 520.964172,363.256805 
	C533.279541,335.318420 536.585144,305.960449 534.146912,275.786774 
	C531.397156,241.758331 517.227234,212.769653 493.001129,189.289536 
	C452.116852,149.664078 401.769165,136.020432 346.174927,139.714645 
	C309.618256,142.143814 273.149506,145.901398 236.644104,149.094818 
	C225.912643,150.033585 215.190369,151.077347 204.099213,152.106842 
	C204.099213,153.894684 204.099213,155.204971 204.099213,156.515274 
	C204.099106,297.337585 204.108459,438.159882 204.036392,578.982117 
	C204.034821,582.052795 204.932007,583.730286 207.748978,585.116028 
	C224.476135,593.345337 241.071640,601.842407 257.807617,610.053467 
	C259.886200,611.073303 262.573273,611.433472 264.911804,611.250061 
	C281.682739,609.934692 298.438904,608.426697 315.194916,606.926025 
	C329.444275,605.649719 343.687164,604.301147 358.804504,602.903992 
	C358.804504,569.244995 358.804504,535.859985 358.804504,502.474915 
	C360.598297,503.706879 361.350525,504.995239 362.074402,506.299377 
	C373.626831,527.112183 385.110809,547.963501 396.817505,568.689087 
	C398.099762,570.959229 400.350098,573.110107 402.672363,574.296692 
	C419.122650,582.702454 435.678223,590.905212 452.290375,598.987366 
	C454.386292,600.006958 457.048370,600.482178 459.379272,600.304749 
	C485.954285,598.282837 512.517212,596.100586 539.080383,593.925049 
	C547.423584,593.241699 555.757996,592.450439 564.920532,591.635254 
	C542.312439,551.345703 520.173889,511.892883 497.695526,471.790222 
M1530.762207,256.306030 
	C1502.602783,258.797058 1474.443359,261.288116 1445.996216,263.804596 
	C1445.996216,266.339935 1445.996338,268.323914 1445.996338,270.307892 
	C1445.996460,334.306915 1445.996216,398.305969 1445.996460,462.304993 
	C1445.996460,471.223755 1444.641235,473.110992 1435.854858,476.167542 
	C1435.854858,474.092529 1435.854858,472.101135 1435.854858,470.109741 
	C1435.855225,411.943939 1435.792847,353.777985 1435.968384,295.612701 
	C1435.983398,290.664398 1434.800293,287.947174 1430.035156,285.785950 
	C1416.550781,279.669952 1403.461548,272.685181 1390.000000,266.515045 
	C1386.436401,264.881592 1382.032227,264.113983 1378.114014,264.386597 
	C1359.338867,265.692871 1340.596558,267.475922 1321.845581,269.124237 
	C1312.085938,269.982178 1302.332397,270.911987 1292.176025,271.846130 
	C1292.176025,273.962891 1292.176025,275.601654 1292.176147,277.240448 
	C1292.176758,352.072662 1292.147827,426.904877 1292.231079,501.737000 
	C1292.238159,508.050385 1292.570435,514.424927 1293.477295,520.665588 
	C1298.505859,555.266357 1318.858643,578.427551 1349.054077,593.947144 
	C1374.827271,607.193726 1402.565674,612.153870 1431.227295,611.674500 
	C1448.006836,611.393799 1464.608276,608.138428 1478.948486,598.989136 
	C1485.579102,594.758484 1490.473389,594.775085 1496.726807,598.518127 
	C1502.126465,601.750244 1507.843872,603.821838 1514.666138,603.081848 
	C1531.719238,601.232239 1548.852539,600.124817 1565.950684,598.686096 
	C1575.380493,597.892761 1584.804565,597.031921 1594.465332,596.180908 
	C1594.572998,594.251709 1594.726196,592.787415 1594.726440,591.323059 
	C1594.737915,490.491241 1594.715210,389.659393 1594.826050,288.827698 
	C1594.830078,285.223633 1593.500610,283.545044 1590.471069,282.056885 
	C1574.782837,274.350616 1559.267944,266.286530 1543.497192,258.756714 
	C1539.957642,257.066742 1535.635620,257.015900 1530.762207,256.306030 
M732.892456,462.487976 
	C732.892517,406.323608 732.849426,350.159119 732.986145,293.995056 
	C732.995605,290.096680 731.878113,288.103424 728.305908,286.427551 
	C714.445557,279.924957 700.841492,272.873260 686.944214,266.454224 
	C683.523682,264.874298 679.293091,264.065308 675.542297,264.344482 
	C652.619995,266.050812 629.727417,268.157867 606.827942,270.166565 
	C601.066772,270.671936 595.316833,271.306274 589.476624,271.889832 
	C589.372803,273.749573 589.235107,275.066620 589.234985,276.383667 
	C589.227600,352.047424 589.113647,427.711578 589.384644,503.374359 
	C589.418335,512.778442 590.507568,522.427368 592.817505,531.528870 
	C600.287964,560.963440 619.836731,580.538208 646.222290,594.010437 
	C672.036743,607.190979 699.753235,612.174072 728.411072,611.668030 
	C745.360718,611.368774 762.079102,607.977539 776.557007,598.686890 
	C782.699829,594.744934 787.160706,594.801147 792.997986,598.147888 
	C798.565796,601.340088 804.294373,603.875854 811.352051,603.104797 
	C828.568420,601.223816 845.869385,600.120728 863.133301,598.669434 
	C872.560364,597.877075 881.981445,597.013306 891.787903,596.148010 
	C891.787903,594.155579 891.787903,592.678040 891.787903,591.200500 
	C891.787903,490.371063 891.769897,389.541565 891.866943,288.712219 
	C891.870117,285.383148 890.827576,283.683777 887.880493,282.236481 
	C871.743103,274.311523 855.765259,266.059753 839.581543,258.232880 
	C836.619202,256.800232 832.898926,256.025818 829.631592,256.278809 
	C806.548523,258.065918 783.491455,260.189850 760.428406,262.231995 
	C754.695984,262.739594 748.971924,263.340973 743.029175,263.920197 
	C743.029175,266.517303 743.029175,268.504761 743.029175,270.492249 
	C743.029236,334.156464 742.872559,397.821533 743.226440,461.483765 
	C743.270874,469.487000 740.517456,473.900513 732.892639,476.451752 
	C732.892639,472.026459 732.892639,467.753448 732.892456,462.487976 
z"/>
<path fill="#FFFEFE" opacity="1.000000" stroke="none" 
	d="
M1212.749756,356.773682 
	C1200.693115,375.578033 1188.904175,394.125305 1176.908813,412.538116 
	C1175.015137,415.444977 1174.933960,417.539856 1176.608521,420.618683 
	C1206.664429,475.880066 1236.584839,531.215210 1266.530396,586.536621 
	C1267.630127,588.568176 1268.691162,590.620667 1270.138306,593.360107 
	C1264.885864,593.871399 1260.173584,594.389771 1255.450684,594.780090 
	C1226.903442,597.139099 1198.355713,599.497559 1169.799438,601.742920 
	C1167.921875,601.890564 1165.766479,601.512085 1164.085083,600.680908 
	C1146.930786,592.199890 1129.815063,583.638367 1112.791992,574.897949 
	C1110.920288,573.937012 1109.196655,571.963257 1108.254028,570.042297 
	C1104.036621,561.446594 1100.126953,552.699890 1095.197021,544.217896 
	C1095.197021,563.243713 1095.197021,582.269531 1095.197021,601.884583 
	C1085.610718,602.809814 1076.407471,603.734985 1067.196777,604.579407 
	C1046.965576,606.434082 1026.736328,608.320557 1006.489075,609.985168 
	C1003.993286,610.190308 1001.133301,609.655945 998.882507,608.559875 
	C982.427246,600.546265 966.118225,592.232727 949.673706,584.196594 
	C946.889954,582.836182 945.879272,581.268982 945.881042,578.147522 
	C945.959595,437.355164 945.948486,296.562775 945.961670,155.770355 
	C945.961792,154.478912 946.147583,153.187485 946.273682,151.544434 
	C954.549072,150.732651 962.631287,149.904572 970.720581,149.153107 
	C992.109680,147.166153 1013.496948,145.155426 1034.900146,143.332687 
	C1037.060059,143.148743 1039.532227,143.752518 1041.506104,144.715347 
	C1058.106934,152.812958 1074.586060,161.160721 1091.204590,169.221207 
	C1094.205811,170.676910 1095.144775,172.388641 1095.128052,175.674377 
	C1094.986938,203.498901 1095.047119,231.324448 1095.046875,259.149689 
	C1095.046753,260.953674 1095.046875,262.757660 1095.046875,264.196167 
	C1097.382568,263.530853 1099.478149,262.563538 1101.642090,262.373077 
	C1134.322876,259.496857 1167.007568,256.662628 1199.708740,254.032074 
	C1202.498413,253.807678 1205.682983,254.539734 1208.220337,255.777954 
	C1224.220825,263.586121 1240.092041,271.658875 1255.999023,279.658386 
	C1257.443237,280.384674 1258.837158,281.210602 1260.620117,282.191406 
	C1244.561157,307.214722 1228.755371,331.843506 1212.749756,356.773682 
M1046.931641,486.425934 
	C1052.027710,477.580414 1057.123779,468.734863 1062.575684,459.271851 
	C1063.652100,461.416504 1064.352173,462.714325 1064.967407,464.051178 
	C1080.203491,497.152588 1095.466431,530.241821 1110.600220,563.389954 
	C1112.014893,566.488464 1113.337158,567.829407 1117.192993,567.443909 
	C1134.924805,565.671326 1152.706787,564.403259 1170.466553,562.903992 
	C1181.386353,561.982117 1192.298462,560.970032 1203.729736,559.952576 
	C1202.673706,557.830444 1201.913696,556.193970 1201.061768,554.606873 
	C1172.012573,500.492889 1142.986816,446.366119 1113.817871,392.316711 
	C1112.069092,389.076294 1112.199585,386.847504 1114.159302,383.797546 
	C1139.542725,344.289948 1164.790771,304.695374 1190.062500,265.116058 
	C1190.917603,263.776917 1191.661377,262.366791 1192.786133,260.420013 
	C1191.013794,260.536560 1190.045288,260.581146 1189.080444,260.666443 
	C1161.372681,263.115051 1133.672852,265.657990 1105.949585,267.914368 
	C1102.158081,268.222961 1100.052734,269.511261 1098.195435,272.793518 
	C1077.863525,308.724762 1057.379028,344.569733 1036.924927,380.431702 
	C1035.916504,382.199677 1034.803589,383.908173 1033.739380,385.644348 
	C1033.329102,385.521362 1032.918823,385.398407 1032.508545,385.275452 
	C1032.508545,306.625519 1032.508545,227.975601 1032.508545,149.103683 
	C1030.469604,149.226578 1029.150024,149.268402 1027.838013,149.390793 
	C1004.455505,151.572205 981.086853,153.922897 957.681396,155.820572 
	C952.885986,156.209381 951.248962,157.277924 951.254944,162.448624 
	C951.412048,298.268097 951.378662,434.087769 951.378174,569.907410 
	C951.378113,571.863708 951.378235,573.820007 951.378235,576.494629 
	C978.849060,573.957275 1005.609436,571.485535 1032.711304,568.982178 
	C1032.711304,558.516235 1033.543335,548.619507 1032.535400,538.913879 
	C1030.534302,519.645935 1034.746826,502.414307 1046.931641,486.425934 
z"/>
<path fill="#FFFEFD" opacity="1.000000" stroke="none" 
	d="
M497.865417,472.115173 
	C520.173889,511.892883 542.312439,551.345703 564.920532,591.635254 
	C555.757996,592.450439 547.423584,593.241699 539.080383,593.925049 
	C512.517212,596.100586 485.954285,598.282837 459.379272,600.304749 
	C457.048370,600.482178 454.386292,600.006958 452.290375,598.987366 
	C435.678223,590.905212 419.122650,582.702454 402.672363,574.296692 
	C400.350098,573.110107 398.099762,570.959229 396.817505,568.689087 
	C385.110809,547.963501 373.626831,527.112183 362.074402,506.299377 
	C361.350525,504.995239 360.598297,503.706879 358.804504,502.474915 
	C358.804504,535.859985 358.804504,569.244995 358.804504,602.903992 
	C343.687164,604.301147 329.444275,605.649719 315.194916,606.926025 
	C298.438904,608.426697 281.682739,609.934692 264.911804,611.250061 
	C262.573273,611.433472 259.886200,611.073303 257.807617,610.053467 
	C241.071640,601.842407 224.476135,593.345337 207.748978,585.116028 
	C204.932007,583.730286 204.034821,582.052795 204.036392,578.982117 
	C204.108459,438.159882 204.099106,297.337585 204.099213,156.515274 
	C204.099213,155.204971 204.099213,153.894684 204.099213,152.106842 
	C215.190369,151.077347 225.912643,150.033585 236.644104,149.094818 
	C273.149506,145.901398 309.618256,142.143814 346.174927,139.714645 
	C401.769165,136.020432 452.116852,149.664078 493.001129,189.289536 
	C517.227234,212.769653 531.397156,241.758331 534.146912,275.786774 
	C536.585144,305.960449 533.279541,335.318420 520.964172,363.256805 
	C511.014160,385.829285 495.254547,403.527283 474.885559,417.250946 
	C473.120148,418.440399 471.365845,419.646301 469.222900,421.105743 
	C478.825775,438.199921 488.260651,454.995087 497.865417,472.115173 
M209.912781,472.500000 
	C209.912781,507.274109 209.912781,542.048218 209.912781,577.475464 
	C239.000961,575.035522 267.413361,572.652222 296.205536,570.237122 
	C296.205536,519.874878 296.205536,470.280670 296.205536,420.283722 
	C302.879547,419.751221 309.203644,419.609070 315.393646,418.624298 
	C319.462830,417.976990 321.255280,419.391510 323.093567,422.773407 
	C348.450378,469.421814 373.969604,515.981934 399.354401,562.615234 
	C400.979828,565.601257 402.546326,566.765503 406.261414,566.410339 
	C431.129578,564.032837 456.033508,562.031128 480.922302,559.866577 
	C486.583313,559.374146 492.230316,558.721130 498.548248,558.074036 
	C466.905884,501.617157 435.782013,446.085480 404.505829,390.282013 
	C407.149170,388.684387 409.278198,387.419647 411.385986,386.120392 
	C432.021881,373.399872 448.123749,356.581085 458.452301,334.438843 
	C465.789276,318.710022 469.776398,302.110138 471.444733,284.946930 
	C474.036194,258.287567 472.904327,231.956421 462.019684,206.966064 
	C451.973450,183.900650 436.315094,165.870453 413.107117,155.144440 
	C391.442566,145.131790 368.485321,143.522720 345.148285,145.422455 
	C312.114929,148.111496 279.109497,151.144135 246.093536,154.045654 
	C234.192276,155.091583 222.295044,156.182999 209.912766,157.297119 
	C209.912766,262.287720 209.912766,366.893860 209.912781,472.500000 
z"/>
<path fill="#FFFDFD" opacity="1.000000" stroke="none" 
	d="
M1531.218018,256.258240 
	C1535.635620,257.015900 1539.957642,257.066742 1543.497192,258.756714 
	C1559.267944,266.286530 1574.782837,274.350616 1590.471069,282.056885 
	C1593.500610,283.545044 1594.830078,285.223633 1594.826050,288.827698 
	C1594.715210,389.659393 1594.737915,490.491241 1594.726440,591.323059 
	C1594.726196,592.787415 1594.572998,594.251709 1594.465332,596.180908 
	C1584.804565,597.031921 1575.380493,597.892761 1565.950684,598.686096 
	C1548.852539,600.124817 1531.719238,601.232239 1514.666138,603.081848 
	C1507.843872,603.821838 1502.126465,601.750244 1496.726807,598.518127 
	C1490.473389,594.775085 1485.579102,594.758484 1478.948486,598.989136 
	C1464.608276,608.138428 1448.006836,611.393799 1431.227295,611.674500 
	C1402.565674,612.153870 1374.827271,607.193726 1349.054077,593.947144 
	C1318.858643,578.427551 1298.505859,555.266357 1293.477295,520.665588 
	C1292.570435,514.424927 1292.238159,508.050385 1292.231079,501.737000 
	C1292.147827,426.904877 1292.176758,352.072662 1292.176147,277.240448 
	C1292.176025,275.601654 1292.176025,273.962891 1292.176025,271.846130 
	C1302.332397,270.911987 1312.085938,269.982178 1321.845581,269.124237 
	C1340.596558,267.475922 1359.338867,265.692871 1378.114014,264.386597 
	C1382.032227,264.113983 1386.436401,264.881592 1390.000000,266.515045 
	C1403.461548,272.685181 1416.550781,279.669952 1430.035156,285.785950 
	C1434.800293,287.947174 1435.983398,290.664398 1435.968384,295.612701 
	C1435.792847,353.777985 1435.855225,411.943939 1435.854858,470.109741 
	C1435.854858,472.101135 1435.854858,474.092529 1435.854858,476.167542 
	C1444.641235,473.110992 1445.996460,471.223755 1445.996460,462.304993 
	C1445.996216,398.305969 1445.996460,334.306915 1445.996338,270.307892 
	C1445.996338,268.323914 1445.996216,266.339935 1445.996216,263.804596 
	C1474.443359,261.288116 1502.602783,258.797058 1531.218018,256.258240 
M1378.991089,454.494354 
	C1378.991089,393.079163 1378.991089,331.663971 1378.991089,269.987854 
	C1351.624146,272.272797 1324.960815,274.498962 1297.882202,276.759796 
	C1297.882202,279.099335 1297.882202,280.906158 1297.882202,282.713013 
	C1297.882446,355.525513 1297.853027,428.338013 1297.933228,501.150421 
	C1297.940552,507.794373 1298.221069,514.495850 1299.113525,521.070374 
	C1302.066772,542.824158 1312.610962,559.535095 1332.873779,569.088257 
	C1358.156616,581.008118 1384.204224,581.325378 1410.047974,571.735962 
	C1431.241821,563.871948 1447.467896,550.188416 1453.990234,527.346497 
	C1454.132202,526.849121 1454.637695,526.455505 1455.937012,524.745911 
	C1455.937012,540.550232 1455.937012,554.889648 1455.937012,569.762695 
	C1481.735229,567.381287 1506.816040,565.066101 1531.809814,562.758972 
	C1531.809814,462.294952 1531.809814,362.539276 1531.809814,262.303223 
	C1505.006348,264.545441 1478.537964,266.759613 1451.607910,269.012451 
	C1451.607910,271.700439 1451.608032,273.832306 1451.608032,275.964142 
	C1451.607788,338.946136 1451.661133,401.928253 1451.467529,464.909698 
	C1451.456665,468.464203 1450.149170,472.488892 1448.199097,475.483215 
	C1438.469360,490.422516 1423.808594,496.024445 1406.648926,495.678253 
	C1393.373047,495.410370 1383.393677,487.239868 1380.657227,474.331940 
	C1379.359009,468.209106 1379.501343,461.780975 1378.991089,454.494354 
z"/>
<path fill="#FFFDFD" opacity="1.000000" stroke="none" 
	d="
M732.892578,462.984192 
	C732.892639,467.753448 732.892639,472.026459 732.892639,476.451752 
	C740.517456,473.900513 743.270874,469.487000 743.226440,461.483765 
	C742.872559,397.821533 743.029236,334.156464 743.029175,270.492249 
	C743.029175,268.504761 743.029175,266.517303 743.029175,263.920197 
	C748.971924,263.340973 754.695984,262.739594 760.428406,262.231995 
	C783.491455,260.189850 806.548523,258.065918 829.631592,256.278809 
	C832.898926,256.025818 836.619202,256.800232 839.581543,258.232880 
	C855.765259,266.059753 871.743103,274.311523 887.880493,282.236481 
	C890.827576,283.683777 891.870117,285.383148 891.866943,288.712219 
	C891.769897,389.541565 891.787903,490.371063 891.787903,591.200500 
	C891.787903,592.678040 891.787903,594.155579 891.787903,596.148010 
	C881.981445,597.013306 872.560364,597.877075 863.133301,598.669434 
	C845.869385,600.120728 828.568420,601.223816 811.352051,603.104797 
	C804.294373,603.875854 798.565796,601.340088 792.997986,598.147888 
	C787.160706,594.801147 782.699829,594.744934 776.557007,598.686890 
	C762.079102,607.977539 745.360718,611.368774 728.411072,611.668030 
	C699.753235,612.174072 672.036743,607.190979 646.222290,594.010437 
	C619.836731,580.538208 600.287964,560.963440 592.817505,531.528870 
	C590.507568,522.427368 589.418335,512.778442 589.384644,503.374359 
	C589.113647,427.711578 589.227600,352.047424 589.234985,276.383667 
	C589.235107,275.066620 589.372803,273.749573 589.476624,271.889832 
	C595.316833,271.306274 601.066772,270.671936 606.827942,270.166565 
	C629.727417,268.157867 652.619995,266.050812 675.542297,264.344482 
	C679.293091,264.065308 683.523682,264.874298 686.944214,266.454224 
	C700.841492,272.873260 714.445557,279.924957 728.305908,286.427551 
	C731.878113,288.103424 732.995605,290.096680 732.986145,293.995056 
	C732.849426,350.159119 732.892517,406.323608 732.892578,462.984192 
M803.512329,565.045837 
	C811.919617,564.280823 820.326904,563.515869 828.722168,562.751953 
	C828.722168,462.371338 828.722168,362.508820 828.722168,262.189178 
	C801.802917,264.455414 775.339111,266.683319 748.680420,268.927612 
	C748.680420,271.966827 748.680420,274.125183 748.680420,276.283569 
	C748.680359,339.109131 748.739746,401.934906 748.530396,464.759796 
	C748.518066,468.458893 747.105957,472.660278 745.041870,475.759949 
	C734.805664,491.131348 719.569092,496.517944 701.850159,495.553802 
	C689.951965,494.906403 680.453735,486.655273 677.875854,474.947205 
	C676.599487,469.150360 676.087036,463.076965 676.074646,457.126923 
	C675.948608,396.801300 675.997314,336.475311 675.997009,276.149445 
	C675.997009,274.199188 675.997070,272.248962 675.997070,269.995087 
	C648.684753,272.273712 622.015869,274.498688 594.914978,276.759674 
	C594.914978,279.050079 594.914978,280.853516 594.914978,282.656921 
	C594.915222,355.481262 594.887634,428.305603 594.963501,501.129852 
	C594.970276,507.609070 595.255920,514.138733 596.089111,520.557007 
	C598.913635,542.315674 609.252869,559.185303 629.461304,568.865540 
	C655.024780,581.110962 681.397400,581.389587 707.560364,571.554688 
	C728.555786,563.662476 744.585693,549.983215 751.044800,527.338989 
	C751.184387,526.849548 751.708069,526.469543 752.052612,526.038452 
	C752.408752,526.113464 752.764893,526.188477 753.121033,526.263428 
	C753.121033,540.581238 753.121033,554.899048 753.121033,569.736145 
	C770.146423,568.142639 786.369934,566.624207 803.512329,565.045837 
z"/>
<path fill="#DA7A48" opacity="1.000000" stroke="none" 
	d="
M1046.745972,486.741882 
	C1034.746826,502.414307 1030.534302,519.645935 1032.535400,538.913879 
	C1033.543335,548.619507 1032.711304,558.516235 1032.711304,568.982178 
	C1005.609436,571.485535 978.849060,573.957275 951.378235,576.494629 
	C951.378235,573.820007 951.378113,571.863708 951.378174,569.907410 
	C951.378662,434.087769 951.412048,298.268097 951.254944,162.448624 
	C951.248962,157.277924 952.885986,156.209381 957.681396,155.820572 
	C981.086853,153.922897 1004.455505,151.572205 1027.838013,149.390793 
	C1029.150024,149.268402 1030.469604,149.226578 1032.508545,149.103683 
	C1032.508545,227.975601 1032.508545,306.625519 1032.508545,385.275452 
	C1032.918823,385.398407 1033.329102,385.521362 1033.739380,385.644348 
	C1034.803589,383.908173 1035.916504,382.199677 1036.924927,380.431702 
	C1057.379028,344.569733 1077.863525,308.724762 1098.195435,272.793518 
	C1100.052734,269.511261 1102.158081,268.222961 1105.949585,267.914368 
	C1133.672852,265.657990 1161.372681,263.115051 1189.080444,260.666443 
	C1190.045288,260.581146 1191.013794,260.536560 1192.786133,260.420013 
	C1191.661377,262.366791 1190.917603,263.776917 1190.062500,265.116058 
	C1164.790771,304.695374 1139.542725,344.289948 1114.159302,383.797546 
	C1112.199585,386.847504 1112.069092,389.076294 1113.817871,392.316711 
	C1142.986816,446.366119 1172.012573,500.492889 1201.061768,554.606873 
	C1201.913696,556.193970 1202.673706,557.830444 1203.729736,559.952576 
	C1192.298462,560.970032 1181.386353,561.982117 1170.466553,562.903992 
	C1152.706787,564.403259 1134.924805,565.671326 1117.192993,567.443909 
	C1113.337158,567.829407 1112.014893,566.488464 1110.600220,563.389954 
	C1095.466431,530.241821 1080.203491,497.152588 1064.967407,464.051178 
	C1064.352173,462.714325 1063.652100,461.416504 1062.575684,459.271851 
	C1057.123779,468.734863 1052.027710,477.580414 1046.745972,486.741882 
z"/>
<path fill="#DA7947" opacity="1.000000" stroke="none" 
	d="
M209.912781,472.000000 
	C209.912766,366.893860 209.912766,262.287720 209.912766,157.297119 
	C222.295044,156.182999 234.192276,155.091583 246.093536,154.045654 
	C279.109497,151.144135 312.114929,148.111496 345.148285,145.422455 
	C368.485321,143.522720 391.442566,145.131790 413.107117,155.144440 
	C436.315094,165.870453 451.973450,183.900650 462.019684,206.966064 
	C472.904327,231.956421 474.036194,258.287567 471.444733,284.946930 
	C469.776398,302.110138 465.789276,318.710022 458.452301,334.438843 
	C448.123749,356.581085 432.021881,373.399872 411.385986,386.120392 
	C409.278198,387.419647 407.149170,388.684387 404.505829,390.282013 
	C435.782013,446.085480 466.905884,501.617157 498.548248,558.074036 
	C492.230316,558.721130 486.583313,559.374146 480.922302,559.866577 
	C456.033508,562.031128 431.129578,564.032837 406.261414,566.410339 
	C402.546326,566.765503 400.979828,565.601257 399.354401,562.615234 
	C373.969604,515.981934 348.450378,469.421814 323.093567,422.773407 
	C321.255280,419.391510 319.462830,417.976990 315.393646,418.624298 
	C309.203644,419.609070 302.879547,419.751221 296.205536,420.283722 
	C296.205536,470.280670 296.205536,519.874878 296.205536,570.237122 
	C267.413361,572.652222 239.000961,575.035522 209.912781,577.475464 
	C209.912781,542.048218 209.912781,507.274109 209.912781,472.000000 
M378.022644,309.462372 
	C385.188934,292.060760 386.005188,274.212524 381.254852,256.149414 
	C377.508942,241.905502 367.453613,233.912689 353.733917,229.994919 
	C342.059143,226.661057 330.278656,228.246246 318.518097,229.374817 
	C311.122375,230.084534 303.731873,230.848938 296.450806,231.577637 
	C296.450806,268.909058 296.450806,305.623474 296.450806,342.771820 
	C310.751190,341.353241 324.722260,340.494049 338.521729,338.466766 
	C356.263367,335.860352 369.627502,326.473846 378.022644,309.462372 
z"/>
<path fill="#DA7947" opacity="1.000000" stroke="none" 
	d="
M1378.991089,454.992737 
	C1379.501343,461.780975 1379.359009,468.209106 1380.657227,474.331940 
	C1383.393677,487.239868 1393.373047,495.410370 1406.648926,495.678253 
	C1423.808594,496.024445 1438.469360,490.422516 1448.199097,475.483215 
	C1450.149170,472.488892 1451.456665,468.464203 1451.467529,464.909698 
	C1451.661133,401.928253 1451.607788,338.946136 1451.608032,275.964142 
	C1451.608032,273.832306 1451.607910,271.700439 1451.607910,269.012451 
	C1478.537964,266.759613 1505.006348,264.545441 1531.809814,262.303223 
	C1531.809814,362.539276 1531.809814,462.294952 1531.809814,562.758972 
	C1506.816040,565.066101 1481.735229,567.381287 1455.937012,569.762695 
	C1455.937012,554.889648 1455.937012,540.550232 1455.937012,524.745911 
	C1454.637695,526.455505 1454.132202,526.849121 1453.990234,527.346497 
	C1447.467896,550.188416 1431.241821,563.871948 1410.047974,571.735962 
	C1384.204224,581.325378 1358.156616,581.008118 1332.873779,569.088257 
	C1312.610962,559.535095 1302.066772,542.824158 1299.113525,521.070374 
	C1298.221069,514.495850 1297.940552,507.794373 1297.933228,501.150421 
	C1297.853027,428.338013 1297.882446,355.525513 1297.882202,282.713013 
	C1297.882202,280.906158 1297.882202,279.099335 1297.882202,276.759796 
	C1324.960815,274.498962 1351.624146,272.272797 1378.991089,269.987854 
	C1378.991089,331.663971 1378.991089,393.079163 1378.991089,454.992737 
z"/>
<path fill="#DA7947" opacity="1.000000" stroke="none" 
	d="
M803.052856,565.075806 
	C786.369934,566.624207 770.146423,568.142639 753.121033,569.736145 
	C753.121033,554.899048 753.121033,540.581238 753.121033,526.263428 
	C752.764893,526.188477 752.408752,526.113464 752.052612,526.038452 
	C751.708069,526.469543 751.184387,526.849548 751.044800,527.338989 
	C744.585693,549.983215 728.555786,563.662476 707.560364,571.554688 
	C681.397400,581.389587 655.024780,581.110962 629.461304,568.865540 
	C609.252869,559.185303 598.913635,542.315674 596.089111,520.557007 
	C595.255920,514.138733 594.970276,507.609070 594.963501,501.129852 
	C594.887634,428.305603 594.915222,355.481262 594.914978,282.656921 
	C594.914978,280.853516 594.914978,279.050079 594.914978,276.759674 
	C622.015869,274.498688 648.684753,272.273712 675.997070,269.995087 
	C675.997070,272.248962 675.997009,274.199188 675.997009,276.149445 
	C675.997314,336.475311 675.948608,396.801300 676.074646,457.126923 
	C676.087036,463.076965 676.599487,469.150360 677.875854,474.947205 
	C680.453735,486.655273 689.951965,494.906403 701.850159,495.553802 
	C719.569092,496.517944 734.805664,491.131348 745.041870,475.759949 
	C747.105957,472.660278 748.518066,468.458893 748.530396,464.759796 
	C748.739746,401.934906 748.680359,339.109131 748.680420,276.283569 
	C748.680420,274.125183 748.680420,271.966827 748.680420,268.927612 
	C775.339111,266.683319 801.802917,264.455414 828.722168,262.189178 
	C828.722168,362.508820 828.722168,462.371338 828.722168,562.751953 
	C820.326904,563.515869 811.919617,564.280823 803.052856,565.075806 
z"/>
<path fill="#FFFEFE" opacity="1.000000" stroke="none" 
	d="
M377.876343,309.810486 
	C369.627502,326.473846 356.263367,335.860352 338.521729,338.466766 
	C324.722260,340.494049 310.751190,341.353241 296.450806,342.771820 
	C296.450806,305.623474 296.450806,268.909058 296.450806,231.577637 
	C303.731873,230.848938 311.122375,230.084534 318.518097,229.374817 
	C330.278656,228.246246 342.059143,226.661057 353.733917,229.994919 
	C367.453613,233.912689 377.508942,241.905502 381.254852,256.149414 
	C386.005188,274.212524 385.188934,292.060760 377.876343,309.810486 
M365.706604,264.208466 
	C363.415527,264.518799 361.124451,264.829132 358.741852,265.151886 
	C358.741852,284.856720 358.741852,304.259766 358.741852,323.817413 
	C375.479340,315.931122 382.100800,282.774811 376.446014,263.419525 
	C373.192749,263.654694 369.891083,263.893311 365.706604,264.208466 
z"/>
<path fill="#DB7E4E" opacity="1.000000" stroke="none" 
	d="
M366.148010,264.170227 
	C369.891083,263.893311 373.192749,263.654694 376.446014,263.419525 
	C382.100800,282.774811 375.479340,315.931122 358.741852,323.817413 
	C358.741852,304.259766 358.741852,284.856720 358.741852,265.151886 
	C361.124451,264.829132 363.415527,264.518799 366.148010,264.170227 
z"/>
</svg>